<?xml version="1.0" encoding="utf-8"?>
<!-- Generator: Adobe Illustrator 25.4.1, SVG Export Plug-In . SVG Version: 6.00 Build 0)  -->
<!DOCTYPE svg PUBLIC "-//W3C//DTD SVG 1.1//EN" "http://www.w3.org/Graphics/SVG/1.1/DTD/svg11.dtd" [
	<!ENTITY ns_extend "http://ns.adobe.com/Extensibility/1.0/">
	<!ENTITY ns_ai "http://ns.adobe.com/AdobeIllustrator/10.0/">
	<!ENTITY ns_graphs "http://ns.adobe.com/Graphs/1.0/">
	<!ENTITY ns_vars "http://ns.adobe.com/Variables/1.0/">
	<!ENTITY ns_imrep "http://ns.adobe.com/ImageReplacement/1.0/">
	<!ENTITY ns_sfw "http://ns.adobe.com/SaveForWeb/1.0/">
	<!ENTITY ns_custom "http://ns.adobe.com/GenericCustomNamespace/1.0/">
	<!ENTITY ns_adobe_xpath "http://ns.adobe.com/XPath/1.0/">
]>
<svg version="1.1" id="Lager_1" xmlns:x="&ns_extend;" xmlns:i="&ns_ai;" xmlns:graph="&ns_graphs;"
	 xmlns="http://www.w3.org/2000/svg" xmlns:xlink="http://www.w3.org/1999/xlink" x="0px" y="0px" viewBox="0 0 594.5 941.8"
	 style="enable-background:new 0 0 594.5 941.8;" xml:space="preserve">
<metadata>
	<sfw  xmlns="&ns_sfw;">
		<slices></slices>
		<sliceSourceBounds  bottomLeftOrigin="true" height="941.8" width="594.5" x="673.7" y="-993.8"></sliceSourceBounds>
		<optimizationSettings>
			<targetSettings  fileFormat="PNG24Format" targetSettingsID="0">
				<PNG24Format  filtered="false" interlaced="false" matteColor="#FFFFFF" noMatteColor="false" transparency="true">
					</PNG24Format>
			</targetSettings>
		</optimizationSettings>
	</sfw>
</metadata>
<g>
	<path d="M34.2,778H5.6l37.2-110.1h35.4L115.4,778H86.8l-25.9-82.4H60L34.2,778z M30.4,734.7h59.8v20.2H30.4V734.7z"/>
	<path d="M128.1,778V667.9h45.5c8.2,0,15.4,1.5,21.4,4.4c6,3,10.6,7.2,13.9,12.7c3.3,5.5,4.9,12,4.9,19.5c0,7.6-1.7,14.1-5,19.4
		c-3.3,5.3-8.1,9.4-14.2,12.2c-6.1,2.8-13.4,4.2-21.8,4.2H144v-21h23.8c4,0,7.4-0.5,10.1-1.6c2.7-1.1,4.8-2.7,6.2-4.8
		c1.4-2.2,2.1-5,2.1-8.4s-0.7-6.2-2.1-8.5c-1.4-2.2-3.5-3.9-6.2-5.1c-2.7-1.1-6.1-1.7-10.1-1.7h-13.1V778H128.1z M190.1,727.7
		l27.4,50.3h-29l-26.9-50.3H190.1z"/>
	<path d="M329.1,707.8h-26.9c-0.4-2.8-1.1-5.3-2.2-7.5c-1.1-2.2-2.6-4.1-4.4-5.7c-1.8-1.6-4-2.8-6.5-3.6c-2.5-0.8-5.2-1.3-8.3-1.3
		c-5.3,0-9.9,1.3-13.8,3.9s-6.8,6.4-8.9,11.3c-2.1,4.9-3.1,10.9-3.1,18c0,7.3,1,13.4,3.1,18.4c2.1,4.9,5.1,8.6,8.9,11.1
		c3.8,2.5,8.3,3.7,13.6,3.7c2.9,0,5.6-0.4,8-1.1c2.4-0.8,4.6-1.9,6.4-3.3c1.8-1.5,3.4-3.2,4.6-5.3c1.2-2.1,2-4.5,2.5-7.1l26.9,0.2
		c-0.5,4.9-1.9,9.7-4.2,14.4c-2.3,4.7-5.6,9-9.7,12.9c-4.1,3.9-9.1,7-14.9,9.3c-5.9,2.3-12.6,3.4-20.1,3.4c-10,0-18.9-2.2-26.8-6.6
		c-7.9-4.4-14.1-10.8-18.6-19.2c-4.6-8.4-6.8-18.7-6.8-30.8c0-12.1,2.3-22.4,6.9-30.8c4.6-8.4,10.9-14.8,18.8-19.2
		c7.9-4.4,16.7-6.6,26.5-6.6c6.7,0,12.8,0.9,18.5,2.8c5.7,1.8,10.6,4.5,15,8.1c4.3,3.5,7.8,7.9,10.5,13
		C326.8,695.3,328.5,701.2,329.1,707.8z"/>
	<path d="M339.3,689.5v-21.6h93.1v21.6H399V778h-26.2v-88.5H339.3z"/>
	<path d="M473.7,667.9V778H447V667.9H473.7z"/>
	<path d="M588.9,707.8H562c-0.4-2.8-1.1-5.3-2.2-7.5c-1.1-2.2-2.6-4.1-4.4-5.7c-1.8-1.6-4-2.8-6.5-3.6c-2.5-0.8-5.2-1.3-8.3-1.3
		c-5.3,0-9.9,1.3-13.8,3.9c-3.9,2.6-6.8,6.4-8.9,11.3c-2.1,4.9-3.1,10.9-3.1,18c0,7.3,1,13.4,3.1,18.4c2.1,4.9,5.1,8.6,8.9,11.1
		c3.8,2.5,8.3,3.7,13.6,3.7c2.9,0,5.6-0.4,8-1.1c2.4-0.8,4.6-1.9,6.4-3.3c1.8-1.5,3.4-3.2,4.6-5.3c1.2-2.1,2-4.5,2.5-7.1l26.9,0.2
		c-0.5,4.9-1.9,9.7-4.2,14.4c-2.3,4.7-5.6,9-9.7,12.9c-4.1,3.9-9.1,7-14.9,9.3c-5.9,2.3-12.6,3.4-20.1,3.4c-10,0-18.9-2.2-26.8-6.6
		c-7.9-4.4-14.1-10.8-18.6-19.2c-4.6-8.4-6.8-18.7-6.8-30.8c0-12.1,2.3-22.4,6.9-30.8c4.6-8.4,10.9-14.8,18.8-19.2
		c7.9-4.4,16.7-6.6,26.5-6.6c6.7,0,12.8,0.9,18.5,2.8c5.7,1.8,10.6,4.5,15,8.1c4.3,3.5,7.8,7.9,10.5,13
		C586.6,695.3,588.3,701.2,588.9,707.8z"/>
</g>
<g>
	<path d="M143.9,866.2c-0.6-2.3-1.5-4.3-2.7-6c-1.2-1.7-2.6-3.2-4.4-4.4c-1.7-1.2-3.7-2.1-5.9-2.8c-2.2-0.6-4.7-0.9-7.3-0.9
		c-5.3,0-10,1.3-13.8,3.9c-3.9,2.6-6.9,6.3-9,11.3c-2.1,4.9-3.2,10.9-3.2,17.9c0,7.1,1,13.1,3.1,18.1c2,5,5,8.8,8.9,11.4
		c3.9,2.6,8.6,3.9,14.1,3.9c4.9,0,9-0.8,12.4-2.4c3.4-1.6,6-3.9,7.7-6.8c1.8-2.9,2.6-6.4,2.6-10.4l4.9,0.6h-26.8v-19.4h47.5v14.6
		c0,9.9-2.1,18.3-6.3,25.3c-4.2,7-9.9,12.4-17.2,16.2c-7.3,3.8-15.7,5.6-25.1,5.6c-10.5,0-19.7-2.3-27.7-6.8
		c-8-4.6-14.2-11.1-18.6-19.5c-4.4-8.4-6.7-18.5-6.7-30.1c0-9,1.3-17.1,4-24.1c2.7-7,6.4-13,11.3-17.8c4.8-4.9,10.4-8.6,16.8-11.1
		c6.4-2.5,13.2-3.8,20.6-3.8c6.4,0,12.3,0.9,17.8,2.7c5.5,1.8,10.4,4.4,14.6,7.7c4.2,3.3,7.7,7.3,10.4,11.9
		c2.7,4.6,4.3,9.6,4.9,15.1H143.9z"/>
	<path d="M205.9,940.3h-28.6l37.2-110.1h35.4L287,940.3h-28.6l-25.9-82.4h-0.9L205.9,940.3z M202.1,897h59.8v20.2h-59.8V897z"/>
	<path d="M303.6,830.2h33l28,68.2h1.3l28-68.2h33v110.1h-25.9v-67.7h-0.9l-26.5,67h-16.6l-26.5-67.3h-0.9v68h-25.9V830.2z"/>
	<path d="M447.3,940.3V830.2H524v21.6h-50.2v22.6h46.2v21.7h-46.2v22.6H524v21.6H447.3z"/>
</g>
<g>
	<path d="M507.4,87L296.9,0L86.6,87.3L0,297.6l87,209.9l209.9,87.1l210.2-86.8l87.5-210.2L507.4,87z M482.4,97.6
		c8,0,14.5,6.5,14.5,14.5c0,8-6.5,14.5-14.5,14.5c-8,0-14.5-6.5-14.5-14.5C467.8,104.1,474.3,97.6,482.4,97.6z M297.3,25.4
		c8,0,14.5,6.5,14.5,14.5c0,8-6.5,14.5-14.5,14.5c-8,0-14.5-6.5-14.5-14.5C282.7,31.9,289.2,25.4,297.3,25.4z M114.7,99.5
		c8,0,14.5,6.5,14.5,14.5c0,8-6.5,14.5-14.5,14.5s-14.5-6.5-14.5-14.5C100.2,106,106.7,99.5,114.7,99.5z M39.9,311.8
		c-8,0-14.5-6.5-14.5-14.5s6.5-14.5,14.5-14.5c8,0,14.5,6.5,14.5,14.5S47.9,311.8,39.9,311.8z M116.5,496.9c-8,0-14.5-6.5-14.5-14.5
		c0-8,6.5-14.5,14.5-14.5s14.5,6.5,14.5,14.5C131.1,490.4,124.6,496.9,116.5,496.9z M297.3,569.2c-8,0-14.5-6.5-14.5-14.5
		c0-8,6.5-14.5,14.5-14.5c8,0,14.5,6.5,14.5,14.5C311.8,562.6,305.3,569.2,297.3,569.2z M482.4,496.9c-8,0-14.5-6.5-14.5-14.5
		c0-8,6.5-14.5,14.5-14.5c8,0,14.5,6.5,14.5,14.5C496.9,490.4,490.4,496.9,482.4,496.9z M519.6,389.8L388.8,519.9l-184.2-0.4
		l-130-130.4L74.8,205L204.9,74.6l184.5,0l130.5,130.5L519.6,389.8z M556.8,311.8c-8,0-14.5-6.5-14.5-14.5s6.5-14.5,14.5-14.5
		s14.5,6.5,14.5,14.5S564.9,311.8,556.8,311.8z"/>
	<path d="M173.8,174.2l-50.8,123.2l51,123l123,51l123.2-50.9l51.2-123.2l-51-123.4l-123.3-51L173.8,174.2z M154.7,309.6
		c-6.4,0-11.6-5.2-11.6-11.6c0-6.4,5.2-11.6,11.6-11.6c6.4,0,11.6,5.2,11.6,11.6C166.3,304.4,161.1,309.6,154.7,309.6z M442.5,286.4
		c6.4,0,11.6,5.2,11.6,11.6c0,6.4-5.2,11.6-11.6,11.6s-11.6-5.2-11.6-11.6C430.9,291.6,436.1,286.4,442.5,286.4z M195.5,183.7
		c6.4,0,11.6,5.2,11.6,11.6s-5.2,11.6-11.6,11.6s-11.6-5.2-11.6-11.6S189.1,183.7,195.5,183.7z M195.5,411.1
		c-6.4,0-11.6-5.2-11.6-11.6c0-6.4,5.2-11.6,11.6-11.6s11.6,5.2,11.6,11.6C207.1,405.9,201.9,411.1,195.5,411.1z M297.3,452.2
		c-6.4,0-11.6-5.2-11.6-11.6c0-6.4,5.2-11.6,11.6-11.6s11.6,5.2,11.6,11.6C308.9,447,303.7,452.2,297.3,452.2z M401,412.2
		c-6.4,0-11.6-5.2-11.6-11.6c0-6.4,5.2-11.6,11.6-11.6c6.4,0,11.6,5.2,11.6,11.6C412.6,407,407.4,412.2,401,412.2z M401,183.7
		c6.4,0,11.6,5.2,11.6,11.6s-5.2,11.6-11.6,11.6c-6.4,0-11.6-5.2-11.6-11.6S394.6,183.7,401,183.7z M415.5,248.4l-0.1,98.1
		l-69.5,69.1l-97.9-0.2l-69-69.3l0.1-97.8l69.2-69.3l98,0L415.5,248.4z M308.9,153.1c0,6.4-5.2,11.6-11.6,11.6s-11.6-5.2-11.6-11.6
		c0-6.4,5.2-11.6,11.6-11.6S308.9,146.8,308.9,153.1z"/>
</g>
</svg>
